<svg width="40" height="40" viewBox="0 0 40 40" fill="none" xmlns="http://www.w3.org/2000/svg">
<rect width="40" height="40" rx="10" fill="#794DFD"/>
<path d="M20.1261 11.7157C18.2651 10.1016 18.2731 13.3397 20.1261 11.7157V11.7157ZM20.1406 11.701C18.5163 9.84807 21.7553 9.83992 20.1406 11.701V11.701ZM21.3229 11.303C21.4968 11.4003 21.5698 11.603 21.543 11.7894C21.4882 12.1646 21.0265 12.4713 20.155 11.7157C20.7095 11.2296 21.0997 11.178 21.3229 11.303ZM20.1404 11.7303C18.526 13.5913 21.7651 13.5832 20.1404 11.7303V11.7303ZM13.5231 16.8582C13.5231 16.8582 13.7248 17.6312 13.4727 18.169C13.4727 18.169 14.2626 18.2195 14.7499 16.9422C15.2373 15.665 14.8339 15.2228 15.7414 14.0827C16.649 12.9425 19.017 13.1569 20.1353 14.6694C21.4074 14.6694 22.4386 15.7006 22.4386 16.9727C22.4386 17.7944 22.007 18.5136 21.3594 18.9212C21.2811 18.9753 21.2246 19.0068 21.2043 19.0146C21.2039 19.0149 21.2036 19.015 21.2036 19.015C21.1989 19.0168 21.1959 19.0179 21.1959 19.0179L21.196 19.0186C21.074 19.0659 20.9597 19.1583 20.8811 19.2862C20.7202 19.548 20.8681 19.7872 21.0887 19.9068C21.1999 19.9672 21.3335 19.9674 21.4593 19.9198C22.0111 19.6848 22.4169 19.2459 22.6788 18.7243C22.7906 18.822 22.9544 18.8447 23.1097 18.8117C23.2335 18.7852 23.3354 18.6987 23.4002 18.5808C23.7434 17.8898 23.6867 17.0987 23.3921 16.4026C23.645 16.4992 23.8512 16.3413 23.9456 16.1246C23.9961 16.0085 23.9849 15.8753 23.9266 15.7541C23.2272 14.4393 21.3597 14.1113 20.1354 14.6694C21.2536 13.1569 23.6217 12.9425 24.5292 14.0827C25.4367 15.2228 25.0334 15.665 25.5207 16.9422C26.0081 18.2195 26.798 18.169 26.798 18.169C26.5459 17.6312 26.7475 16.8582 26.7475 16.8582C27.5374 19.9504 29.1282 18.7397 29.1282 18.7397C26.3307 13.7564 20.1354 8.8 20.1354 8.8C20.1354 8.8 13.9399 13.7564 11.1425 18.7397C11.1425 18.7397 12.7333 19.9504 13.5231 16.8582Z" fill="white"/>
<path d="M16.344 15.7541C16.2856 15.8754 16.2745 16.0085 16.3251 16.1246C16.4194 16.3413 16.6257 16.4992 16.8785 16.4025C16.584 17.0988 16.5272 17.8898 16.8705 18.5808C16.9354 18.6988 17.0372 18.7852 17.1609 18.8117C17.3162 18.8448 17.4801 18.822 17.5919 18.7243C17.8537 19.2459 18.2596 19.6848 18.8113 19.9198C18.9372 19.9675 19.0708 19.9672 19.182 19.9068C19.4027 19.7872 19.5505 19.548 19.3897 19.2862C19.3111 19.1583 19.1966 19.066 19.0747 19.0186L19.0747 19.0179C19.0747 19.0179 19.0718 19.0168 19.0671 19.015C19.0671 19.015 19.0667 19.0149 19.0663 19.0146C19.0461 19.0068 18.9894 18.9751 18.9111 18.9212C18.2637 18.5135 17.8321 17.7943 17.8321 16.9727C17.8321 15.7005 18.8633 14.6694 20.1353 14.6694C18.9109 14.1113 17.0435 14.4393 16.344 15.7541Z" fill="white"/>
<path d="M12.8701 19.2645C12.8241 19.3752 12.8768 19.5018 12.9873 19.5479C13.098 19.5937 13.2247 19.5412 13.2706 19.4306C13.3165 19.32 13.264 19.1931 13.1535 19.1472C13.0429 19.1015 12.916 19.1539 12.8701 19.2645Z" fill="#794DFD"/>
<path d="M13.9132 18.8558C13.8368 19.0401 13.9242 19.2515 14.1084 19.3281C14.2927 19.4044 14.5041 19.317 14.5805 19.1328C14.657 18.9483 14.5696 18.737 14.3854 18.6605C14.201 18.5842 13.9897 18.6714 13.9132 18.8558Z" fill="#794DFD"/>
<path d="M15.124 17.9801C15.0083 18.2586 15.1406 18.578 15.4192 18.6936C15.6977 18.8093 16.0173 18.6771 16.1329 18.3986C16.2484 18.12 16.1162 17.8006 15.8377 17.685C15.559 17.5695 15.2395 17.7016 15.124 17.9801Z" fill="#794DFD"/>
<path d="M27.2834 19.5479C27.3939 19.5017 27.4466 19.3752 27.4006 19.2645C27.3547 19.1539 27.2278 19.1015 27.1172 19.1472C27.0067 19.1931 26.9541 19.32 27.0001 19.4306C27.046 19.5412 27.1727 19.5937 27.2834 19.5479Z" fill="#794DFD"/>
<path d="M26.1622 19.3281C26.3466 19.2516 26.4339 19.0401 26.3575 18.8559C26.281 18.6714 26.0697 18.5842 25.8853 18.6605C25.7011 18.737 25.6137 18.9483 25.6901 19.1328C25.7665 19.3171 25.9779 19.4044 26.1622 19.3281Z" fill="#794DFD"/>
<path d="M24.8515 18.6936C25.1301 18.578 25.2624 18.2586 25.1468 17.9801C25.0312 17.7016 24.7117 17.5694 24.4331 17.6849C24.1544 17.8006 24.0223 18.12 24.1378 18.3986C24.2534 18.6771 24.5731 18.8093 24.8515 18.6936Z" fill="#794DFD"/>
<path d="M21.7251 17.4867C21.7767 17.3261 21.8053 17.1549 21.8053 16.9771C21.8053 16.7994 21.7767 16.6282 21.7251 16.4676C21.6273 16.7302 21.2816 16.9771 20.5511 16.9771C21.2816 16.9771 21.6273 17.2242 21.7251 17.4867Z" fill="#794DFD"/>
<path d="M18.91 15.8596C19.1861 15.8147 19.5717 15.9913 19.9357 16.6221C19.5706 15.9894 19.6115 15.5667 19.7898 15.3506C19.4441 15.4249 19.1394 15.6072 18.91 15.8596Z" fill="#794DFD"/>
<path d="M21.3716 15.8596C21.1422 15.6072 20.8375 15.4249 20.4919 15.3506C20.6702 15.5667 20.7111 15.9894 20.3459 16.6221C20.71 15.9913 21.0955 15.8147 21.3716 15.8596Z" fill="#794DFD"/>
<path d="M18.91 18.0948C19.1394 18.3473 19.4441 18.5295 19.7898 18.6038C19.6115 18.3878 19.5706 17.9648 19.9357 17.3325C19.5717 17.9631 19.1861 18.1399 18.91 18.0948Z" fill="#794DFD"/>
<path d="M18.5566 16.4676C18.5049 16.6282 18.4764 16.7994 18.4764 16.9771C18.4764 17.1549 18.5049 17.3261 18.5566 17.4867C18.6543 17.2242 19.0001 16.9771 19.7307 16.9771C19.0001 16.9771 18.6543 16.7302 18.5566 16.4676Z" fill="#794DFD"/>
<path d="M21.3716 18.0948C21.0955 18.1399 20.71 17.9631 20.3459 17.3325C20.7111 17.9648 20.6702 18.3878 20.4919 18.6038C20.8375 18.5295 21.1422 18.3473 21.3716 18.0948Z" fill="#794DFD"/>
<path d="M20.1408 17.2206C20.2752 17.2206 20.3841 17.1116 20.3841 16.9771C20.3841 16.8427 20.2752 16.7338 20.1408 16.7338C20.0064 16.7338 19.8976 16.8427 19.8976 16.9771C19.8976 17.1116 20.0064 17.2206 20.1408 17.2206Z" fill="white"/>
<path d="M20.1261 11.7157C18.2651 10.1016 18.2731 13.3397 20.1261 11.7157V11.7157Z" fill="#794DFD"/>
<path d="M20.1407 11.701C18.5164 9.84809 21.7553 9.83994 20.1407 11.701V11.701Z" fill="#794DFD"/>
<path d="M20.1405 11.7303C18.526 13.5913 21.765 13.5832 20.1405 11.7303V11.7303Z" fill="#794DFD"/>
<path d="M21.543 11.7893C21.5698 11.6029 21.4968 11.4002 21.3229 11.303C21.0997 11.1779 20.7095 11.2296 20.1551 11.7156C21.0265 12.4712 21.4882 12.1645 21.543 11.7893Z" fill="#794DFD"/>
<path d="M13.7544 22.1264C13.7853 22.018 13.8274 21.933 13.8668 21.8699C14.0286 21.611 14.3022 21.4565 14.5987 21.4565C14.9145 21.4565 15.2046 21.6332 15.3557 21.9175C15.3979 21.9969 15.4406 22.1062 15.4605 22.2457C15.55 22.2239 15.6327 22.2155 15.7064 22.2155C16.1948 22.2155 16.5774 22.5897 16.5774 23.0672C16.5774 23.3283 16.4598 23.5907 16.2106 23.7847C16.4104 23.992 16.4891 24.2363 16.4814 24.4574C16.4655 24.9171 16.0884 25.2773 15.6232 25.2774H15.6229C15.5251 25.2774 15.3971 25.2613 15.2529 25.2035C15.2219 25.312 15.1799 25.397 15.1404 25.4601C14.9787 25.7189 14.7051 25.8736 14.4086 25.8736C14.0929 25.8736 13.8028 25.697 13.6516 25.4126C13.6095 25.3333 13.5668 25.2239 13.5469 25.0844C13.4573 25.1063 13.3748 25.1146 13.301 25.1146H13.3008C12.9813 25.1146 12.6982 24.9548 12.5435 24.687C12.3896 24.4205 12.3912 24.0995 12.5478 23.8283C12.5954 23.7459 12.673 23.6426 12.7966 23.5456C12.5967 23.3382 12.518 23.0939 12.5257 22.8727C12.5417 22.4128 12.9189 22.0525 13.3843 22.0525C13.482 22.0525 13.6101 22.0686 13.7544 22.1264ZM11.8616 23.48C9.80669 23.3362 11.8705 27.5687 13.0224 25.8608C11.8705 27.5687 16.5675 27.8972 15.6645 26.0457C16.5675 27.8972 19.2005 23.9933 17.1456 23.8499C19.2005 23.9933 17.137 19.7618 15.9848 21.4693C17.137 19.7618 12.4396 19.4324 13.3428 21.2845C12.4396 19.4324 9.80669 23.3362 11.8616 23.48Z" fill="white"/>
<path d="M26.8991 25.1146C26.8253 25.1146 26.7426 25.1063 26.6531 25.0844C26.6331 25.2239 26.5904 25.3332 26.5483 25.4124C26.3972 25.6969 26.1072 25.8735 25.7916 25.8736H25.7914C25.4949 25.8736 25.2213 25.7191 25.0595 25.4603C25.0201 25.3972 24.9781 25.312 24.947 25.2035C24.8027 25.2613 24.6747 25.2774 24.5769 25.2774C24.1116 25.2774 23.7345 24.9173 23.7185 24.4576C23.7107 24.2365 23.7893 23.9922 23.9891 23.785C23.7555 23.6014 23.6225 23.3424 23.6225 23.0673C23.6225 22.5897 24.0052 22.2155 24.4937 22.2155C24.5674 22.2155 24.65 22.2239 24.7396 22.2457C24.7595 22.1062 24.8021 21.9969 24.8443 21.9175C24.9955 21.6332 25.2856 21.4565 25.6012 21.4565C25.8979 21.4565 26.1715 21.611 26.3332 21.8699C26.3727 21.9329 26.4147 22.018 26.4457 22.1264C26.59 22.0687 26.718 22.0526 26.8157 22.0526C27.2812 22.0526 27.6584 22.4128 27.6744 22.8727C27.6821 23.0939 27.6034 23.3382 27.4035 23.5455C27.6526 23.7395 27.7702 24.0018 27.7702 24.2628C27.7702 24.7404 27.3876 25.1146 26.8991 25.1146ZM26.8573 21.2845C27.7603 19.4324 23.063 19.7618 24.2151 21.4693C23.063 19.7618 20.9995 23.9933 23.0544 23.8499C20.9995 23.9933 23.6324 27.8972 24.5354 26.0457C23.6324 27.8972 28.3295 27.5687 27.1776 25.8608C28.3295 27.5687 30.3933 23.3362 28.3383 23.48C30.3933 23.3362 27.7603 19.4324 26.8573 21.2845Z" fill="white"/>
<path d="M25.9288 24.0099C27.1865 25.8739 24.5283 26.0601 25.5141 24.0391C24.5283 26.0601 23.0384 23.8514 25.2817 23.6943C23.0384 23.8514 24.206 21.4563 25.4639 23.3202C24.206 21.4563 26.8644 21.2697 25.8786 23.2907C26.8644 21.2697 28.3543 23.4791 26.1113 23.6355C28.3543 23.4791 27.1865 25.8739 25.9288 24.0099ZM27.7701 24.2627C27.7701 24.0017 27.6525 23.7395 27.4035 23.5455C27.6034 23.3382 27.6821 23.0939 27.6744 22.8727C27.6583 22.4128 27.2812 22.0525 26.8157 22.0525C26.718 22.0525 26.5899 22.0686 26.4457 22.1264C26.4147 22.018 26.3727 21.9329 26.3333 21.8699C26.1715 21.611 25.8979 21.4565 25.6012 21.4565C25.2855 21.4565 24.9955 21.6332 24.8443 21.9175C24.8022 21.9968 24.7595 22.1062 24.7395 22.2457C24.65 22.2239 24.5674 22.2155 24.4936 22.2155C24.0052 22.2155 23.6226 22.5897 23.6226 23.0673C23.6226 23.3423 23.7555 23.6013 23.9891 23.7849C23.7893 23.9922 23.7107 24.2364 23.7184 24.4576C23.7345 24.9172 24.1116 25.2774 24.5769 25.2774C24.6747 25.2774 24.8027 25.2613 24.9471 25.2035C24.978 25.312 25.0201 25.3971 25.0595 25.4603C25.2213 25.7191 25.4949 25.8735 25.7914 25.8735H25.7916C26.1072 25.8735 26.3971 25.6968 26.5483 25.4124C26.5905 25.3331 26.6331 25.2238 26.653 25.0844C26.7427 25.1063 26.8253 25.1146 26.899 25.1146C27.3875 25.1146 27.7702 24.7403 27.7701 24.2627Z" fill="#794DFD"/>
<path d="M14.3213 23.2908C13.3357 21.2698 15.994 21.4564 14.7361 23.3204C15.994 21.4564 17.1616 23.8515 14.9183 23.6943C17.1616 23.8515 15.6717 26.0602 14.6859 24.0391C15.6717 26.0602 13.0135 25.8739 14.2712 24.01C13.0135 25.8739 11.8457 23.4792 14.0888 23.6356C11.8457 23.4792 13.3357 21.2698 14.3213 23.2908ZM12.5257 22.8728C12.5181 23.0939 12.5967 23.3383 12.7966 23.5456C12.673 23.6427 12.5954 23.746 12.5478 23.8284C12.3912 24.0996 12.3897 24.4206 12.5435 24.6871C12.6982 24.9548 12.9813 25.1147 13.3008 25.1147H13.301C13.3748 25.1147 13.4573 25.1064 13.5469 25.0845C13.5668 25.224 13.6095 25.3334 13.6517 25.4127C13.8029 25.6971 14.0929 25.8737 14.4086 25.8737C14.7051 25.8737 14.9787 25.7191 15.1405 25.4602C15.1799 25.397 15.2219 25.3121 15.2529 25.2036C15.3972 25.2614 15.5252 25.2775 15.6229 25.2775H15.6232C16.0885 25.2773 16.4655 24.9172 16.4815 24.4575C16.4892 24.2364 16.4105 23.9921 16.2106 23.7848C16.4599 23.5908 16.5774 23.3284 16.5774 23.0673C16.5774 22.5897 16.1948 22.2156 15.7064 22.2156C15.6327 22.2156 15.55 22.224 15.4605 22.2458C15.4406 22.1063 15.3979 21.9969 15.3558 21.9176C15.2046 21.6332 14.9145 21.4565 14.5988 21.4565C14.3022 21.4565 14.0286 21.611 13.8669 21.8699C13.8274 21.9331 13.7854 22.0181 13.7544 22.1265C13.6101 22.0687 13.482 22.0526 13.3843 22.0526C12.9189 22.0526 12.5418 22.4129 12.5257 22.8728Z" fill="#794DFD"/>
<path d="M29.6501 19.9143C29.6501 19.9143 29.1092 20.2224 29.4459 20.9672C29.2094 20.9544 28.9782 21.2089 29.2517 21.593C29.6495 22.1519 30.1039 22.9998 29.6511 24.8144C28.9168 26.6916 27.0893 28.0253 24.955 28.0253C24.7446 28.0253 24.5408 28.0089 24.3429 27.9806C21.4074 27.3364 21.3337 24.4052 21.3337 24.4052C20.8339 25.1898 21.2522 25.9519 21.2522 25.9519C21.2522 25.9519 20.3951 25.3218 20.5968 24.0109C20.7985 22.7001 20.1 22.5362 20.1 22.5362C20.1 22.5362 19.4015 22.7001 19.6032 24.0109C19.8048 25.3218 18.9477 25.9519 18.9477 25.9519C18.9477 25.9519 19.366 25.1898 18.8663 24.4052C18.8663 24.4052 18.7926 27.3364 15.8571 27.9806C15.6592 28.0089 15.4553 28.0253 15.2449 28.0253C13.1107 28.0253 11.2833 26.6916 10.5488 24.8144C10.0961 22.9998 10.5505 22.1519 10.9483 21.593C11.2217 21.2089 10.9905 20.9544 10.7541 20.9672C11.0908 20.2224 10.5499 19.9143 10.5499 19.9143C10.0808 20.9697 9.79999 22.0087 9.79999 22.9838C9.79999 25.9909 12.2378 28.4287 15.2449 28.4287C15.2472 28.4287 15.2494 28.4285 15.2517 28.4285C15.3256 28.4284 15.3989 28.4264 15.4714 28.4228C15.5262 28.4201 15.5803 28.4159 15.6342 28.4112C15.6491 28.41 15.6642 28.4092 15.6791 28.4078C18.1112 28.1849 19.6561 26.1655 19.6561 26.1655C19.6561 26.1655 18.4934 28.1452 17.8379 28.725C17.8379 28.725 18.7171 28.9381 19.3981 28.7573C18.313 29.3937 17.3744 29.0869 17.2857 29.0554L17.2848 29.055C17.2807 29.0536 17.2781 29.0528 17.2781 29.0528L17.2779 29.0532C17.1657 29.0127 17.0385 29.0133 16.9211 29.0659C16.6813 29.1736 16.5742 29.4553 16.6818 29.6952C16.7242 29.7893 16.7936 29.8622 16.8764 29.9103C16.563 29.9111 16.3539 29.869 16.3072 29.8581L16.3058 29.8581C16.3 29.8567 16.2959 29.8557 16.2959 29.8557L16.2957 29.8564C16.1325 29.8186 15.9549 29.8407 15.7997 29.9339C15.4827 30.1245 15.3802 30.5359 15.5707 30.8529C15.667 31.0126 15.8194 31.1178 15.9874 31.1584C17.0808 31.373 18.0917 30.8996 18.867 30.1312C18.4465 30.7593 18.1071 31.2102 18.1071 31.2102H20.1H22.0929C22.0929 31.2102 21.7535 30.7593 21.3329 30.1313C22.1082 30.8996 23.1192 31.373 24.2126 31.1584C24.3806 31.1178 24.5331 31.0126 24.6293 30.8529C24.8197 30.5359 24.7173 30.1245 24.4002 29.9339C24.245 29.8407 24.0675 29.8186 23.9042 29.8564L23.904 29.8557C23.904 29.8557 23.9 29.8567 23.8941 29.8581L23.8929 29.8581C23.846 29.869 23.6369 29.9111 23.3236 29.9103C23.4064 29.8622 23.4758 29.7893 23.5182 29.6952C23.6259 29.4553 23.5187 29.1736 23.279 29.0659C23.1615 29.0133 23.0344 29.0127 22.9221 29.0532L22.9219 29.0528C22.9219 29.0528 22.9193 29.0536 22.9152 29.055L22.9143 29.0554C22.8255 29.0869 21.887 29.3937 20.8019 28.7573C21.4829 28.9381 22.362 28.725 22.362 28.725C21.7066 28.1452 20.5439 26.1655 20.5439 26.1655C20.5439 26.1655 22.0889 28.1849 24.5209 28.4078C24.5357 28.4092 24.5509 28.4101 24.5658 28.4112C24.6198 28.4157 24.6737 28.4202 24.7285 28.4228C24.8011 28.4262 24.8742 28.4284 24.9483 28.4285C24.9505 28.4285 24.9528 28.4287 24.955 28.4287C27.9622 28.4287 30.4 25.9909 30.4 22.9838C30.4 22.0087 30.1191 20.9697 29.6501 19.9143Z" fill="white"/>
</svg>
